<?xml version="1.0" encoding="UTF-8"?>
<svg width="80px" height="68px" viewBox="0 0 80 68" version="1.1" xmlns="http://www.w3.org/2000/svg" xmlns:xlink="http://www.w3.org/1999/xlink">
    <!-- Generator: Sketch 63.1 (92452) - https://sketch.com -->
    <title>暂无消息</title>
    <desc>Created with Sketch.</desc>
    <g id="页面-1" stroke="none" stroke-width="1" fill="none" fill-rule="evenodd">
        <g id="学生端1-1签到" transform="translate(-140.000000, -463.000000)" fill-rule="nonzero">
            <g id="今日签到" transform="translate(0.000000, 359.000000)">
                <g id="信息区域" transform="translate(0.000000, 50.000000)">
                    <g id="暂无消息" transform="translate(180.000000, 88.000000) rotate(-360.000000) translate(-180.000000, -88.000000) translate(130.000000, 38.000000)">
                        <rect id="矩形" fill="#000000" opacity="0" x="0" y="0" width="100" height="100"></rect>
                        <g id="编组" transform="translate(10.000000, 16.000000)">
                            <path d="M80,61.0810811 C80,64.4368178 62.2245819,67.027027 40,67.027027 C17.9771702,67.027027 0,64.4473044 0,61.0810811 C0,57.7148577 17.7754181,55.1351351 40,55.1351351 C62.0228298,55.1456218 80,57.7253444 80,61.0810811" id="路径" fill="#DFDFDF"></path>
                            <path d="M54.9744529,62.7027027 L15.7341696,62.7027027 C12.4148138,62.7027027 9.72972973,60.023731 9.72972973,56.7119314 L9.72972973,3.15359262 C9.72972973,1.41331575 11.1462701,1.22904689e-13 12.8905176,1.22904689e-13 L55.2175905,1.22904689e-13 C56.961838,1.22904689e-13 58.3783784,1.41331575 58.3783784,3.15359262 L58.3783784,59.306526 C58.3783784,61.1839156 56.856126,62.7027027 54.9744529,62.7027027 L54.9744529,62.7027027 Z" id="路径" fill="#FFFFFF"></path>
                            <path d="M55.4187874,64.8648649 L16.3589573,64.8648649 C12.6970983,64.8648649 9.72972973,61.8401892 9.72972973,58.1314879 L9.72972973,3.85833189 C9.72972973,1.73143979 11.4343883,1.22904689e-13 13.5283824,1.22904689e-13 L55.6608068,1.22904689e-13 C57.7548009,1.22904689e-13 59.4594595,1.73143979 59.4594595,3.85833189 L59.4594595,60.7607113 C59.4594595,63.0265461 57.6495751,64.8648649 55.4187874,64.8648649 L55.4187874,64.8648649 Z M13.5283824,1.3252996 C12.1499239,1.3252996 11.0345301,2.45821699 11.0345301,3.85833189 L11.0345301,58.1208 C11.0345301,61.1027241 13.4231565,63.5288774 16.3589573,63.5288774 L55.4187874,63.5288774 C56.9235168,63.5288774 58.1441365,62.289081 58.1441365,60.7607113 L58.1441365,3.85833189 C58.1441365,2.45821699 57.0287427,1.3252996 55.6502842,1.3252996 L13.5283824,1.3252996 Z" id="形状" fill="#A9B1B6"></path>
                            <path d="M18.7985385,51.8918919 C18.7985385,51.8918919 23.0161964,60.8781234 15.1536489,63.72769 C15.1536489,63.72769 15.111993,63.72769 15.1536489,63.72769 C32.0451087,63.72769 48.9365685,63.9520653 65.8176143,63.5033146 C66.5882481,63.2789393 67.3484679,62.8414074 67.9316502,62.4038756 C68.3169671,62.1795003 69.2750524,61.09128 69.8478208,59.554309 C70.4205891,57.8041815 70.6184546,55.1677715 69.077187,53.2044875 C68.6918701,52.5425803 68.1191017,52.1050484 67.3484679,51.8918919 L18.8506083,51.8918919" id="路径" fill="#FFFFFF"></path>
                            <path d="M39.5836454,64.8648649 C35.3461517,64.8648649 31.129584,64.8538638 26.965331,64.8428628 C22.7278373,64.8318618 18.4903437,64.8208607 14.2528501,64.8208607 L14.2423871,64.1277954 L14.0540541,63.5337394 C16.042014,62.829673 17.3708083,61.6635631 17.9985852,60.0574117 C19.2436759,56.8451088 17.3812713,52.8957365 17.3603454,52.8517324 C17.2034012,52.5217013 17.3289565,52.1256639 17.632382,51.9606484 C17.7370115,51.9056432 17.841641,51.8836411 17.9462704,51.8946422 L66.7873083,51.8946422 L66.8710119,51.9166442 C67.7917512,52.1806691 68.5032316,52.7087189 68.9740643,53.4897925 C71.003876,56.0310321 70.1249885,59.3423443 69.8006371,60.2994345 C69.1519344,61.9715921 68.0951767,63.1707052 67.5720293,63.4567321 C66.9233266,63.9517788 66.0758279,64.3698182 65.3224957,64.5898389 L65.1760144,64.611841 C56.6801012,64.8208607 48.0795586,64.8648649 39.5836454,64.8648649 L39.5836454,64.8648649 Z M16.9209016,63.5007363 C20.2795077,63.5007363 23.6276508,63.5117373 26.9757939,63.5227383 C39.45809,63.5667425 52.3798299,63.5997456 65.0818479,63.2807155 C65.6782359,63.1046989 66.3478645,62.7526657 66.9337896,62.3236253 C67.247678,62.1476087 68.1161026,61.1795174 68.63925,59.8263899 C68.8903607,59.0673183 69.622767,56.3500622 67.9696213,54.2708662 C67.634807,53.7208143 67.2058262,53.4017842 66.6303641,53.2147666 L18.8774727,53.2147666 C19.421546,54.7329097 20.2376559,57.8021991 19.1704353,60.5524583 C18.6996026,61.7405703 17.9462704,62.7196626 16.9209016,63.5007363 L16.9209016,63.5007363 Z" id="形状" fill="#A9B1B6"></path>
                            <path d="M16.2162162,7.56756757 L32.5756422,7.56756757 L32.5756422,11.6900615 L16.2162162,11.6900615 L16.2162162,7.56756757 Z M16.2162162,13.7405727 L54.0540541,13.7405727 L54.0540541,15.8018197 L16.2162162,15.8018197 L16.2162162,13.7405727 Z M16.2162162,20.9442014 L24.3959292,20.9442014 L24.3959292,25.0666953 L16.2162162,25.0666953 L16.2162162,20.9442014 Z M16.2162162,27.1279422 L48.9350681,27.1279422 L48.9350681,29.1891892 L16.2162162,29.1891892 L16.2162162,27.1279422 Z" id="形状" fill="#EDEEEE"></path>
                            <polygon id="路径" fill="#EDEEEE" points="16.2162162 34.5945946 41.0810811 34.5945946 41.0810811 36.7567568 16.2162162 36.7567568"></polygon>
                            <polygon id="路径" fill="#EDEEEE" points="17.2972973 38.9189189 36.7567568 38.9189189 36.7567568 41.0810811 17.2972973 41.0810811"></polygon>
                        </g>
                    </g>
                </g>
            </g>
        </g>
    </g>
</svg>